<?xml version="1.0" encoding="UTF-8"?><svg id="a" xmlns="http://www.w3.org/2000/svg" xmlns:xlink="http://www.w3.org/1999/xlink" viewBox="0 0 672.58 489.75"><defs><style>.h{fill:#fff;}.i{fill:#e22d4c;}.j{fill:url(#d);}.k{fill:url(#e);}.l{fill:#1a1a36;}</style><linearGradient id="d" x1="200.35" y1="132.77" x2="472.57" y2="132.77" gradientTransform="matrix(1, 0, 0, 1, 0, 0)" gradientUnits="userSpaceOnUse"><stop offset="0" stop-color="#e08b81"/><stop offset="1" stop-color="#e22d4c"/></linearGradient><linearGradient id="e" x1="298.83" y1="35.99" x2="456.33" y2="35.99" xlink:href="#d"/></defs><g id="b"><g id="c"><path class="j" d="M453.14,87.19c.49-14.99,14.98-31.98,19.43-36.86-11,.61-21.78,1.84-32.13,3.48-10.23,1.63-20.05,3.66-29.27,5.89-9.7,2.35-18.73,4.92-26.88,7.48-7.08,2.23-13.49,4.45-19.08,6.5,.12,.12,.24,.25,.37,.37,0,0,0,.02,0,.01-.1-.08-.24-.21-.42-.36-14.06,5.17-22.94,9.32-24.33,9.97,0,0-.01-.01,0-.02,7.46-4.26,14.95-8.1,22.45-11.56-3.66-3.08-11.28-9.28-22-16.93-.94-.67-1.9-1.35-2.89-2.05-.4-.28-.81-.57-1.22-.86l-.19-.13c-9.51-6.61-21.06-14.06-34.14-21.39-2.71-1.52-5.48-3.03-8.31-4.53-.1,.08-.21,.17-.31,.26-8.41-3.96-17.63-7.68-27.23-10.56-15.94-4.77-32.95-7.21-49.19-4.56,0,0-.01,0,0,.01,.41,.42,15.92,16.38,17.87,31.07,8.12,2.11,18.27,5.07,29.74,9.12,22.82,8.06,50.9,20.43,78.75,38.97,3.9,2.6,7.79,5.31,11.67,8.15,21.46,15.74,42.31,35.35,60.02,59.69,0,0,0,.02,0,.01-2.01-2.36-26.19-30.38-63.31-57.55-3.71-2.72-7.55-5.43-11.52-8.1-22.98-15.5-50.01-29.82-79.28-37.78-4.98-1.36-10.03-2.53-15.13-3.49-3.72-.7-7.48-1.29-11.25-1.75-11.45-1.42-23.13-1.73-34.97-.64,1.67,1.73,18.76,19.86,20.47,36.29-.79,3.41-1.43,6.89-1.92,10.41-1.29,9.27-1.52,18.88-.54,28.71,3.37,33.98,21.11,63.74,47.03,83.17h0l.07,.05c3.49,2.62,7.13,5.05,10.91,7.27l22.69,15.13h0l37.73,25.15v-81.3l-37.73-24.97,45.16,20.19v61.93c19.34-1.19,37.43-7,53.18-16.34,3.67-2.18,7.22-4.55,10.62-7.1l.03-.02h0c28.99-21.71,47.75-56.33,47.75-95.33,0-5.65-.4-11.22-1.16-16.66-.4-2.86-.9-5.69-1.5-8.48Zm-125.39,117.59c1.66,0,3.02,1.26,3.17,2.88,0,.1,.02,.21,.02,.31,0,1.76-1.43,3.19-3.19,3.19s-3.19-1.43-3.19-3.19c0-.11,0-.21,.02-.31,.16-1.61,1.52-2.88,3.17-2.88Z"/><path class="k" d="M340.04,50.85c1.51,1.22,3.02,2.46,4.52,3.72,6.44,5.42,12.78,11.21,18.96,17.41,14.62-6.73,29.23-12.03,43.54-16.16,10.69-3.09,21.21-5.52,31.43-7.42-2.65-15.96,17.39-36.59,17.83-37.03,0,0,0,0,0,0-16.37-2.67-33.53-.17-49.57,4.67-2.62,.79-5.21,1.65-7.76,2.55-8.16,2.89-15.93,6.29-23.04,9.8-15.04,7.42-27.14,15.34-33.72,19.94,7.05-7.63,18.89-16.19,29.69-23.26-16.69-13.64-27.9-21.43-28.96-22-2.82-1.84-6.21-3.06-9.03-3.06s-6.21,1.23-9.03,3.06c-1,.54-10.98,7.47-26.06,19.65,13.59,7.8,27.26,16.93,40.57,27.63,.21,.17,.43,.34,.64,.52Z"/></g><g id="f"><path class="l" d="M311.02,257.25s-21.51-11.83-70.39,0c0,0,43.99,11.4,70.39,0Z"/><path class="l" d="M276.55,286.26s49.77-5.38,49.77-21.5c0,0-34.57-1.79-49.77,21.5Z"/><path class="l" d="M362.56,257.25c26.4,11.4,70.39,0,70.39,0-48.88-11.83-70.39,0-70.39,0Z"/><path class="l" d="M342.69,264.75c0,16.13,49.77,21.5,49.77,21.5-15.21-23.3-49.77-21.5-49.77-21.5Z"/></g><circle id="g" class="h" cx="325.56" cy="207.97" r="5.32"/></g><g><path class="l" d="M0,441.53v-2H8v-136H0v-2H32v2h-8v136h19c7.2,0,13-11.6,13-26h2v28H0Z"/><path class="l" d="M92.6,340.53c13.2,0,26,7.6,26,27v62c0,3.8,1.8,6.8,4,6.8s4-3,4-6.8h2c0,7.2-5.8,13-13,13-5.8,0-10.6-3.6-12.4-8.6-1.8,4.2-5.8,8.6-14,8.6-11.6,0-22.6-9-22.6-21v-6.8c0-11.2,14.4-21,14.4-21l21.6-14.6v-19.6c0-11.8-3.4-17-10-17-5,0-10.8,2-13.8,6,5.8,0,9.8,4,9.8,9s-4,9-9,9-9-4-9-9c0-9.4,10-17,22-17Zm10,41.4l-14.4,10c-4.2,2.8-5.6,9.4-5.6,22.8v14.8c0,4.4,1.6,11,8,11,5,0,11.4-4.4,12-11.2v-47.4Z"/><path class="l" d="M193.79,373.53v66h8v2h-32v-2h8v-136h-8v-2h32c21.6,0,36,14.4,36,32v8c0,14.8-10.4,27.4-26.4,31,16,3.6,26.4,16.2,26.4,31v27c0,3.8,1.8,6.8,4,6.8s4-3,4-6.8h2c0,7.2-5.8,13-13,13s-13-5.8-13-13v-27c0-16.6-9-30-20-30h-8Zm0-70v68h8c11,0,20-13.4,20-30v-8c0-16.6-9-30-20-30h-8Z"/><path class="l" d="M257.19,367.53c0-19,12.8-27,26-27s26,8,26,27v48c0,19-12.8,27-26,27s-26-8-26-27v-48Zm36,0c0-17.8-3.4-25-10-25s-10,7.2-10,25v48c0,17.8,3.4,25,10,25s10-7.2,10-25v-48Z"/><path class="l" d="M322.99,423.53c0-5,4.2-9,9-9s9,4,9,9-4,9-9.8,9c3.4,5,10,8,16,8,9.2,0,16.8-7.4,16.8-19,0-24-40-23.2-40-56,0-13.8,10.8-25,24-25s22,7.6,22,17c0,5-4.2,9-9,9s-9-4-9-9,4-9,9.8-9c-2.2-3.6-6.8-6-12.6-6-8.4,0-15.2,6.6-15.2,17,0,24,40,23.2,40,56,0,15-11.4,27-25.6,27s-25.4-8.6-25.4-19Z"/><path class="l" d="M402.79,423.53c0,11.8,5.4,17,12,17,8,0,20-5.8,20-25v-4.6h2v4.6c0,18-9.6,27-24,27-13.2,0-26-8-26-27v-48c0-19,12.8-27,26-27s26,8,26,27v23.2h-36v32.8Zm0-34.8h20v-21.2c0-17.8-3.4-25-10-25s-10,7.2-10,25v21.2Z"/><path class="l" d="M492.59,344.53c-1.6-1.4-4-2-6.6-2-6.4,0-12,5.2-12,13v84h8v2h-32v-2h8v-96h-8v-2h24v6.2c2.2-4,6.4-7.2,13.8-7.2s14.2,4.8,14.2,13c0,5-4,9-9,9s-9-4-9-9,3.8-8.8,8.6-9Z"/><path class="l" d="M534.59,340.53c13.2,0,26,7.6,26,27v62c0,3.8,1.8,6.8,4,6.8s4-3,4-6.8h2c0,7.2-5.8,13-13,13-5.8,0-10.6-3.6-12.4-8.6-1.8,4.2-5.8,8.6-14,8.6-11.6,0-22.6-9-22.6-21v-6.8c0-11.2,14.4-21,14.4-21l21.6-14.6v-19.6c0-11.8-3.4-17-10-17-5,0-10.8,2-13.8,6,5.8,0,9.8,4,9.8,9s-4,9-9,9-9-4-9-9c0-9.4,10-17,22-17Zm10,41.4l-14.4,10c-4.2,2.8-5.6,9.4-5.6,22.8v14.8c0,4.4,1.6,11,8,11,5,0,11.4-4.4,12-11.2v-47.4Z"/><path class="l" d="M576.78,439.53h8v-96h-8v-2h24v98h8v2h-32v-2Zm6-122c0,5.6,4.4,10,10,10s10-4.4,10-10-4.4-10-10-10-10,4.4-10,10Z"/><path class="l" d="M636.58,423.53c0,11.8,5.4,17,12,17,8,0,20-5.8,20-25v-4.6h2v4.6c0,18-9.6,27-24,27-13.2,0-26-8-26-27v-48c0-19,12.8-27,26-27s26,8,26,27v23.2h-36v32.8Zm0-34.8h20v-21.2c0-17.8-3.4-25-10-25s-10,7.2-10,25v21.2Z"/><path class="i" d="M14.53,487.13v2.4H2.98v-15.4H14.22v2.4H5.83v4h7.44v2.35H5.83v4.25H14.53Z"/><path class="i" d="M49,474.13v15.4h-2.86v-6.6h-7.96v6.6h-2.86v-15.4h2.86v6.36h7.96v-6.36h2.86Z"/><path class="i" d="M80.56,474.79c.99,.44,1.75,1.07,2.28,1.89,.53,.82,.79,1.8,.79,2.93s-.26,2.09-.79,2.92c-.53,.83-1.29,1.46-2.28,1.9-.99,.44-2.15,.66-3.49,.66h-3.48v4.44h-2.86v-15.4h6.34c1.33,0,2.5,.22,3.49,.66Zm-.78,7.08c.64-.53,.97-1.28,.97-2.27s-.32-1.74-.97-2.27c-.65-.53-1.59-.79-2.84-.79h-3.34v6.12h3.34c1.25,0,2.19-.26,2.84-.79Z"/><path class="i" d="M113.3,485.96h-7.7l-1.52,3.56h-2.95l6.93-15.4h2.82l6.95,15.4h-2.99l-1.54-3.56Zm-.95-2.24l-2.9-6.73-2.88,6.73h5.79Z"/><path class="i" d="M137.4,474.13h6.73c1.64,0,3.1,.32,4.38,.96,1.28,.64,2.27,1.54,2.97,2.71,.7,1.17,1.06,2.51,1.06,4.04s-.35,2.87-1.06,4.04c-.7,1.17-1.69,2.07-2.97,2.71-1.28,.64-2.74,.96-4.38,.96h-6.73v-15.4Zm6.6,12.98c1.13,0,2.12-.22,2.98-.65,.86-.43,1.52-1.05,1.98-1.85,.46-.8,.69-1.73,.69-2.78s-.23-1.98-.69-2.78c-.46-.8-1.12-1.42-1.98-1.85-.86-.43-1.85-.65-2.98-.65h-3.74v10.56h3.74Z"/><path class="l" d="M195.65,483.26c0-2.09,1.58-3.61,3.61-3.61s3.65,1.52,3.65,3.61-1.63,3.65-3.65,3.65-3.61-1.56-3.61-3.65Z"/><path class="i" d="M248.46,489.24c-1.11-.34-1.98-.78-2.63-1.34l.99-2.22c.63,.5,1.4,.91,2.32,1.22,.92,.32,1.84,.47,2.76,.47,1.14,0,2-.18,2.56-.55,.56-.37,.85-.85,.85-1.45,0-.44-.16-.8-.47-1.09-.32-.29-.71-.51-1.2-.67s-1.14-.34-1.98-.55c-1.17-.28-2.12-.56-2.85-.84-.73-.28-1.35-.71-1.87-1.31s-.78-1.4-.78-2.41c0-.85,.23-1.62,.69-2.32,.46-.7,1.16-1.25,2.09-1.66,.93-.41,2.07-.62,3.42-.62,.94,0,1.86,.12,2.77,.35,.91,.24,1.69,.57,2.35,1.01l-.9,2.22c-.67-.4-1.38-.7-2.11-.9-.73-.21-1.44-.31-2.13-.31-1.13,0-1.97,.19-2.52,.57-.55,.38-.82,.89-.82,1.52,0,.44,.16,.8,.47,1.08s.71,.5,1.2,.66c.48,.16,1.14,.34,1.98,.55,1.14,.26,2.08,.54,2.82,.83s1.36,.72,1.88,1.31c.52,.59,.78,1.38,.78,2.38,0,.85-.23,1.62-.69,2.31s-1.16,1.24-2.1,1.65c-.94,.41-2.08,.62-3.43,.62-1.19,0-2.34-.17-3.44-.51Z"/><path class="i" d="M288.55,485.96h-7.7l-1.52,3.56h-2.95l6.93-15.4h2.82l6.95,15.4h-2.99l-1.54-3.56Zm-.95-2.24l-2.9-6.73-2.88,6.73h5.79Z"/><path class="i" d="M312.64,474.13h2.86v15.4h-2.86v-15.4Z"/><path class="i" d="M350.95,474.13v15.4h-2.35l-8.49-10.43v10.43h-2.84v-15.4h2.35l8.49,10.43v-10.43h2.84Z"/><path class="i" d="M375.81,476.55h-5.1v-2.42h13.07v2.42h-5.1v12.98h-2.86v-12.98Z"/><path class="i" d="M415.08,487.13v2.4h-11.55v-15.4h11.24v2.4h-8.38v4h7.44v2.35h-7.44v4.25h8.69Z"/><path class="i" d="M434.57,482.27h6.05v2.29h-6.05v-2.29Z"/><path class="i" d="M471.04,485.96h-7.7l-1.52,3.56h-2.95l6.93-15.4h2.82l6.95,15.4h-2.99l-1.54-3.56Zm-.95-2.24l-2.9-6.73-2.88,6.73h5.79Z"/><path class="i" d="M495.13,474.13h6.73c1.64,0,3.1,.32,4.38,.96,1.28,.64,2.27,1.54,2.97,2.71,.7,1.17,1.06,2.51,1.06,4.04s-.35,2.87-1.06,4.04c-.7,1.17-1.69,2.07-2.97,2.71-1.28,.64-2.74,.96-4.38,.96h-6.73v-15.4Zm6.6,12.98c1.13,0,2.12-.22,2.98-.65,.86-.43,1.52-1.05,1.98-1.85,.46-.8,.69-1.73,.69-2.78s-.23-1.98-.69-2.78c-.46-.8-1.12-1.42-1.98-1.85-.86-.43-1.85-.65-2.98-.65h-3.74v10.56h3.74Z"/><path class="i" d="M540.98,489.53l-3.15-4.51c-.13,.01-.33,.02-.59,.02h-3.48v4.49h-2.86v-15.4h6.34c1.33,0,2.5,.22,3.49,.66,.99,.44,1.75,1.07,2.28,1.89,.53,.82,.79,1.8,.79,2.93s-.28,2.16-.85,2.99c-.57,.84-1.38,1.46-2.43,1.87l3.54,5.06h-3.08Zm-1.03-12.19c-.65-.53-1.59-.79-2.84-.79h-3.34v6.14h3.34c1.25,0,2.19-.27,2.84-.8,.64-.54,.97-1.29,.97-2.28s-.32-1.74-.97-2.27Z"/><path class="i" d="M576.14,487.13v2.4h-11.55v-15.4h11.24v2.4h-8.38v4h7.44v2.35h-7.44v4.25h8.69Z"/><path class="i" d="M598.26,489.24c-1.11-.34-1.98-.78-2.63-1.34l.99-2.22c.63,.5,1.4,.91,2.32,1.22,.92,.32,1.84,.47,2.76,.47,1.14,0,2-.18,2.56-.55,.56-.37,.85-.85,.85-1.45,0-.44-.16-.8-.47-1.09-.32-.29-.71-.51-1.2-.67s-1.14-.34-1.98-.55c-1.17-.28-2.12-.56-2.85-.84-.73-.28-1.35-.71-1.87-1.31s-.78-1.4-.78-2.41c0-.85,.23-1.62,.69-2.32,.46-.7,1.16-1.25,2.09-1.66,.93-.41,2.07-.62,3.42-.62,.94,0,1.86,.12,2.77,.35,.91,.24,1.69,.57,2.35,1.01l-.9,2.22c-.67-.4-1.38-.7-2.11-.9-.73-.21-1.44-.31-2.13-.31-1.13,0-1.97,.19-2.52,.57-.55,.38-.82,.89-.82,1.52,0,.44,.16,.8,.47,1.08s.71,.5,1.2,.66c.48,.16,1.14,.34,1.98,.55,1.14,.26,2.08,.54,2.82,.83s1.36,.72,1.88,1.31c.52,.59,.78,1.38,.78,2.38,0,.85-.23,1.62-.69,2.31s-1.16,1.24-2.1,1.65c-.94,.41-2.08,.62-3.43,.62-1.19,0-2.34-.17-3.44-.51Z"/><path class="i" d="M629.7,489.24c-1.11-.34-1.98-.78-2.63-1.34l.99-2.22c.63,.5,1.4,.91,2.32,1.22,.92,.32,1.84,.47,2.76,.47,1.14,0,2-.18,2.56-.55,.56-.37,.85-.85,.85-1.45,0-.44-.16-.8-.47-1.09-.32-.29-.71-.51-1.2-.67s-1.14-.34-1.98-.55c-1.17-.28-2.12-.56-2.85-.84-.73-.28-1.35-.71-1.87-1.31s-.78-1.4-.78-2.41c0-.85,.23-1.62,.69-2.32,.46-.7,1.16-1.25,2.09-1.66,.93-.41,2.07-.62,3.42-.62,.94,0,1.86,.12,2.77,.35,.91,.24,1.69,.57,2.35,1.01l-.9,2.22c-.67-.4-1.38-.7-2.11-.9-.73-.21-1.44-.31-2.13-.31-1.13,0-1.97,.19-2.52,.57-.55,.38-.82,.89-.82,1.52,0,.44,.16,.8,.47,1.08s.71,.5,1.2,.66c.48,.16,1.14,.34,1.98,.55,1.14,.26,2.08,.54,2.82,.83s1.36,.72,1.88,1.31c.52,.59,.78,1.38,.78,2.38,0,.85-.23,1.62-.69,2.31s-1.16,1.24-2.1,1.65c-.94,.41-2.08,.62-3.43,.62-1.19,0-2.34-.17-3.44-.51Z"/><path class="i" d="M671.35,487.13v2.4h-11.55v-15.4h11.24v2.4h-8.38v4h7.44v2.35h-7.44v4.25h8.69Z"/></g></svg>