<svg xmlns="http://www.w3.org/2000/svg" xmlns:xlink="http://www.w3.org/1999/xlink" width="230" height="258" viewBox="0 0 230 258">
  <defs>
    <linearGradient id="linear-gradient" y1="0.5" x2="1" y2="0.5" gradientUnits="objectBoundingBox">
      <stop offset="0" stop-color="#de8a80"/>
      <stop offset="1" stop-color="#e02c4c"/>
    </linearGradient>
  </defs>
  <g id="rond-fond-pictos-accueil" transform="translate(-516 -5272)">
    <circle id="Ellipse_1" data-name="Ellipse 1" cx="115" cy="115" r="115" transform="translate(516 5272)" fill="#f7f5ec"/>
    <circle id="Ellipse_4" data-name="Ellipse 4" cx="32" cy="32" r="32" transform="translate(596 5466)" fill="#fff"/>
    <g id="Logo" transform="translate(610.754 5479.864)">
      <g id="Rose">
        <path id="Tracé_36" data-name="Tracé 36" d="M395.69,286.932c.063-1.9,1.9-4.051,2.462-4.67a40.122,40.122,0,0,0-4.072.441c-1.3.206-2.541.463-3.709.746-1.229.3-2.374.624-3.406.948-.9.282-1.709.563-2.418.824l.046.047s0,0,0,0l-.053-.046c-1.781.655-2.907,1.18-3.082,1.264,0,0,0,0,0,0q1.417-.809,2.844-1.464c-.464-.39-1.43-1.176-2.787-2.145l-.366-.259-.155-.108-.025-.017c-1.2-.838-2.668-1.781-4.326-2.71q-.514-.288-1.053-.573l-.039.032A24.976,24.976,0,0,0,372.1,277.9a14.077,14.077,0,0,0-6.233-.578s0,0,0,0c.052.053,2.017,2.076,2.265,3.937,1.029.267,2.314.642,3.769,1.155a45.378,45.378,0,0,1,9.978,4.938q.741.493,1.478,1.033a34.8,34.8,0,0,1,7.605,7.563s0,0,0,0a50.69,50.69,0,0,0-8.021-7.291q-.706-.516-1.459-1.026a34.45,34.45,0,0,0-10.045-4.787q-.947-.258-1.917-.442-.707-.133-1.426-.222a20.645,20.645,0,0,0-4.431-.081c.211.219,2.376,2.516,2.594,4.6q-.15.649-.243,1.319a15.346,15.346,0,0,0-.069,3.637A15.027,15.027,0,0,0,371.9,302.2h0l.009.006a15.132,15.132,0,0,0,1.382.922l2.875,1.917h0l4.78,3.187v-10.3l-4.78-3.164,5.723,2.558v7.848a15.027,15.027,0,0,0,8.085-2.97l0,0h0a15.1,15.1,0,0,0,5.9-14.19Q395.8,287.463,395.69,286.932Zm-15.888,14.9a.4.4,0,0,1,.4.364c0,.013,0,.026,0,.04a.4.4,0,0,1-.808,0c0-.013,0-.026,0-.04A.4.4,0,0,1,379.8,301.832Z" transform="translate(-363.66 -275.885)" fill="url(#linear-gradient)"/>
        <path id="Tracé_37" data-name="Tracé 37" d="M467.358,273.353q.287.232.573.472,1.224,1.03,2.4,2.206a39.1,39.1,0,0,1,5.517-2.047c1.354-.391,2.687-.7,3.983-.941-.336-2.022,2.2-4.636,2.259-4.692,0,0,0,0,0,0a14.116,14.116,0,0,0-6.281.592q-.5.15-.983.323a26.926,26.926,0,0,0-2.919,1.241,33.621,33.621,0,0,0-4.272,2.526,21.778,21.778,0,0,1,3.762-2.947c-2.115-1.728-3.535-2.715-3.67-2.788a1.882,1.882,0,0,0-2.289,0c-.127.069-1.391.946-3.3,2.489a39.887,39.887,0,0,1,5.141,3.5Z" transform="translate(-449.658 -266.91)" fill="url(#linear-gradient)"/>
      </g>
      <g id="Pétales" transform="translate(5.104 31.93)">
        <path id="Tracé_38" data-name="Tracé 38" d="M412.86,519.574s-2.725-1.5-8.919,0C403.941,519.574,409.516,521.019,412.86,519.574Z" transform="translate(-403.941 -518.908)" fill="#1a1936"/>
        <path id="Tracé_39" data-name="Tracé 39" d="M439.857,534.36s6.307-.681,6.307-2.725C446.164,531.635,441.784,531.408,439.857,534.36Z" transform="translate(-435.306 -530.019)" fill="#1a1936"/>
        <path id="Tracé_40" data-name="Tracé 40" d="M525.869,519.574c3.345,1.445,8.919,0,8.919,0C528.594,518.075,525.869,519.574,525.869,519.574Z" transform="translate(-510.42 -518.908)" fill="#1a1936"/>
        <path id="Tracé_41" data-name="Tracé 41" d="M506,531.635c0,2.044,6.307,2.725,6.307,2.725C510.382,531.408,506,531.635,506,531.635Z" transform="translate(-493.07 -530.019)" fill="#1a1936"/>
      </g>
      <circle id="Poignée" cx="0.675" cy="0.675" r="0.675" transform="translate(15.19 25.677)" fill="#fff"/>
    </g>
  </g>
</svg>
